<?xml version="1.0" standalone="no"?><!-- Generator: Gravit.io --><svg xmlns="http://www.w3.org/2000/svg" xmlns:xlink="http://www.w3.org/1999/xlink" style="isolation:isolate" viewBox="0 0 150 100" width="150" height="100"><defs><clipPath id="_clipPath_daAYy5DH9bsHhPwrb1nQaev45XKjetVT"><rect width="150" height="100"/></clipPath></defs><g clip-path="url(#_clipPath_daAYy5DH9bsHhPwrb1nQaev45XKjetVT)"><g style="isolation:isolate"><rect x="0" y="0" width="151.37" height="100" transform="matrix(1,0,0,1,0,0)" fill="rgb(43,43,43)"/><g style="isolation:isolate"><g style="isolation:isolate"><path d=" M 21.006 39.11 C 22.857 36.441 26.392 35.352 29.491 36.683 C 33.034 38.205 34.674 42.317 33.152 45.86 C 32.171 48.143 30.114 49.637 27.827 50 C 28.298 49.478 28.691 48.87 28.984 48.188 C 30.442 44.793 28.87 40.852 25.475 39.394 C 24.005 38.762 22.433 38.699 21.006 39.11 Z " fill-rule="evenodd" fill="rgb(23,23,23)"/><path d=" M 33.72 60.89 C 31.869 63.559 28.334 64.648 25.235 63.317 C 21.692 61.795 20.052 57.683 21.574 54.14 C 22.555 51.857 24.612 50.363 26.899 50 C 26.428 50.522 26.035 51.13 25.742 51.812 C 24.284 55.207 25.856 59.148 29.251 60.606 C 30.721 61.238 32.293 61.301 33.72 60.89 Z " fill-rule="evenodd" fill="rgb(23,23,23)"/></g><g style="isolation:isolate"><path d=" M 69.665 39.11 C 71.516 36.441 75.051 35.352 78.151 36.683 C 81.693 38.205 83.334 42.317 81.812 45.86 C 80.831 48.143 78.774 49.637 76.486 50 C 76.958 49.478 77.351 48.87 77.643 48.188 C 79.102 44.793 77.53 40.852 74.135 39.394 C 72.665 38.762 71.092 38.699 69.665 39.11 Z " fill-rule="evenodd" fill="rgb(23,23,23)"/><path d=" M 82.38 60.89 C 80.529 63.559 76.994 64.648 73.895 63.317 C 70.352 61.795 68.711 57.683 70.234 54.14 C 71.215 51.857 73.271 50.363 75.559 50 C 75.088 50.522 74.695 51.13 74.402 51.812 C 72.943 55.207 74.515 59.148 77.911 60.606 C 79.381 61.238 80.953 61.301 82.38 60.89 Z " fill-rule="evenodd" fill="rgb(23,23,23)"/></g><g style="isolation:isolate"><path d=" M 117.649 39.11 C 119.5 36.441 123.035 35.352 126.135 36.683 C 129.677 38.205 131.318 42.317 129.796 45.86 C 128.815 48.143 126.758 49.637 124.47 50 C 124.942 49.478 125.335 48.87 125.628 48.188 C 127.086 44.793 125.514 40.852 122.119 39.394 C 120.649 38.762 119.077 38.699 117.649 39.11 Z " fill-rule="evenodd" fill="rgb(23,23,23)"/><path d=" M 130.364 60.89 C 128.513 63.559 124.978 64.648 121.879 63.317 C 118.336 61.795 116.696 57.683 118.218 54.14 C 119.199 51.857 121.256 50.363 123.543 50 C 123.072 50.522 122.679 51.13 122.386 51.812 C 120.927 55.207 122.5 59.148 125.895 60.606 C 127.365 61.238 128.937 61.301 130.364 60.89 Z " fill-rule="evenodd" fill="rgb(23,23,23)"/></g></g></g></g></svg>