<?xml version="1.0" standalone="no"?><!-- Generator: Gravit.io --><svg xmlns="http://www.w3.org/2000/svg" xmlns:xlink="http://www.w3.org/1999/xlink" style="isolation:isolate" viewBox="0 0 150 150" width="150" height="150"><defs><clipPath id="_clipPath_6oKwjxjk9UPW3BOsEz9fdNCq5SkX20n0"><rect width="150" height="150"/></clipPath></defs><g clip-path="url(#_clipPath_6oKwjxjk9UPW3BOsEz9fdNCq5SkX20n0)"><rect x="0" y="0" width="150" height="150" transform="matrix(1,0,0,1,0,0)" fill="none"/><rect x="34.5" y="31.607" width="81" height="86.786" transform="matrix(1,0,0,1,0,0)" fill="rgb(235,235,235)" vector-effect="non-scaling-stroke" stroke-width="1" stroke="rgb(0,0,0)" stroke-linejoin="miter" stroke-linecap="square" stroke-miterlimit="2"/><g style="isolation:isolate"><polygon points="137.947,141,134.003,125.12,122.222,136.475" fill="rgb(232,232,232)"/><rect x="71.031" y="6.25" width="14.482" height="144.823" transform="matrix(-0.72,0.694,-0.694,-0.72,189.218,80.978)" fill="rgb(232,232,232)"/><rect x="12.817" y="1.923" width="7.241" height="25.171" transform="matrix(-0.72,0.694,-0.694,-0.72,38.34,13.547)" fill="rgb(46,46,46)" vector-effect="non-scaling-stroke" stroke-width="1" stroke="rgb(0,0,0)" stroke-linejoin="miter" stroke-linecap="square" stroke-miterlimit="2"/><rect x="10.689" y="19.464" width="28.965" height="8.211" transform="matrix(-0.72,0.694,-0.694,-0.72,59.651,23.071)" fill="rgb(46,46,46)" vector-effect="non-scaling-stroke" stroke-width="1" stroke="rgb(0,0,0)" stroke-linejoin="miter" stroke-linecap="square" stroke-miterlimit="2"/><rect x="12.817" y="1.923" width="7.241" height="25.171" transform="matrix(-0.72,0.694,-0.694,-0.72,38.34,13.547)" fill="rgb(149,93,37)" vector-effect="non-scaling-stroke" stroke-width="1" stroke="rgb(0,0,0)" stroke-linejoin="miter" stroke-linecap="square" stroke-miterlimit="2"/><rect x="10.689" y="19.464" width="28.965" height="8.211" transform="matrix(-0.72,0.694,-0.694,-0.72,59.651,23.071)" fill="rgb(149,93,37)" vector-effect="non-scaling-stroke" stroke-width="1" stroke="rgb(0,0,0)" stroke-linejoin="miter" stroke-linecap="square" stroke-miterlimit="2"/></g><g style="isolation:isolate"><polygon points="12.053,141,15.997,125.12,27.778,136.475" fill="rgb(232,232,232)"/><rect x="64.486" y="6.25" width="14.482" height="144.823" transform="matrix(-0.72,-0.694,0.694,-0.72,68.781,185.075)" fill="rgb(232,232,232)"/><rect x="129.942" y="1.923" width="7.241" height="25.171" transform="matrix(-0.72,-0.694,0.694,-0.72,219.659,117.644)" fill="rgb(46,46,46)" vector-effect="non-scaling-stroke" stroke-width="1" stroke="rgb(0,0,0)" stroke-linejoin="miter" stroke-linecap="square" stroke-miterlimit="2"/><rect x="110.347" y="19.464" width="28.965" height="8.211" transform="matrix(-0.72,-0.694,0.694,-0.72,198.348,127.168)" fill="rgb(46,46,46)" vector-effect="non-scaling-stroke" stroke-width="1" stroke="rgb(0,0,0)" stroke-linejoin="miter" stroke-linecap="square" stroke-miterlimit="2"/><rect x="129.942" y="1.923" width="7.241" height="25.171" transform="matrix(-0.72,-0.694,0.694,-0.72,219.659,117.644)" fill="rgb(149,93,37)" vector-effect="non-scaling-stroke" stroke-width="1" stroke="rgb(0,0,0)" stroke-linejoin="miter" stroke-linecap="square" stroke-miterlimit="2"/><rect x="110.347" y="19.464" width="28.965" height="8.211" transform="matrix(-0.72,-0.694,0.694,-0.72,198.348,127.168)" fill="rgb(149,93,37)" vector-effect="non-scaling-stroke" stroke-width="1" stroke="rgb(0,0,0)" stroke-linejoin="miter" stroke-linecap="square" stroke-miterlimit="2"/></g><g style="isolation:isolate"><rect x="34.5" y="101.036" width="81" height="17.357" transform="matrix(1,0,0,1,0,0)" fill="rgb(235,235,235)" vector-effect="non-scaling-stroke" stroke-width="1" stroke="rgb(0,0,0)" stroke-linejoin="miter" stroke-linecap="square" stroke-miterlimit="2"/><rect x="34.5" y="83.679" width="81" height="17.357" transform="matrix(1,0,0,1,0,0)" fill="rgb(235,235,235)" vector-effect="non-scaling-stroke" stroke-width="1" stroke="rgb(0,0,0)" stroke-linejoin="miter" stroke-linecap="square" stroke-miterlimit="2"/><rect x="34.5" y="66.321" width="81" height="17.357" transform="matrix(1,0,0,1,0,0)" fill="rgb(235,235,235)" vector-effect="non-scaling-stroke" stroke-width="1" stroke="rgb(0,0,0)" stroke-linejoin="miter" stroke-linecap="square" stroke-miterlimit="2"/><rect x="34.5" y="48.964" width="81" height="17.357" transform="matrix(1,0,0,1,0,0)" fill="rgb(235,235,235)" vector-effect="non-scaling-stroke" stroke-width="1" stroke="rgb(0,0,0)" stroke-linejoin="miter" stroke-linecap="square" stroke-miterlimit="2"/><rect x="34.5" y="31.607" width="81" height="17.357" transform="matrix(1,0,0,1,0,0)" fill="rgb(235,235,235)" vector-effect="non-scaling-stroke" stroke-width="1" stroke="rgb(0,0,0)" stroke-linejoin="miter" stroke-linecap="square" stroke-miterlimit="2"/></g><g style="isolation:isolate"><rect x="34.5" y="31.607" width="18.184" height="17.357" transform="matrix(1,0,0,1,0,0)" fill="rgb(0,0,0)"/><rect x="65.908" y="31.607" width="18.184" height="17.357" transform="matrix(1,0,0,1,0,0)" fill="rgb(0,0,0)"/><rect x="47.724" y="48.964" width="18.184" height="17.357" transform="matrix(1,0,0,1,0,0)" fill="rgb(0,0,0)"/><rect x="84.092" y="48.964" width="18.184" height="17.357" transform="matrix(1,0,0,1,0,0)" fill="rgb(0,0,0)"/><rect x="97.316" y="66.321" width="18.184" height="17.357" transform="matrix(1,0,0,1,0,0)" fill="rgb(0,0,0)"/><rect x="65.908" y="66.321" width="18.184" height="17.357" transform="matrix(1,0,0,1,0,0)" fill="rgb(0,0,0)"/><rect x="34.5" y="66.321" width="18.184" height="17.357" transform="matrix(1,0,0,1,0,0)" fill="rgb(0,0,0)"/><rect x="84.092" y="83.679" width="18.184" height="17.357" transform="matrix(1,0,0,1,0,0)" fill="rgb(0,0,0)"/><rect x="47.724" y="83.679" width="18.184" height="17.357" transform="matrix(1,0,0,1,0,0)" fill="rgb(0,0,0)"/><rect x="34.5" y="101.036" width="18.184" height="17.357" transform="matrix(1,0,0,1,0,0)" fill="rgb(0,0,0)"/><rect x="65.908" y="101.036" width="18.184" height="17.357" transform="matrix(1,0,0,1,0,0)" fill="rgb(0,0,0)"/><rect x="97.316" y="101.036" width="18.184" height="17.357" transform="matrix(1,0,0,1,0,0)" fill="rgb(0,0,0)"/><rect x="97.316" y="31.607" width="18.184" height="17.357" transform="matrix(1,0,0,1,0,0)" fill="rgb(0,0,0)"/></g></g></svg>