<?xml version="1.0" standalone="no"?><!-- Generator: Gravit.io --><svg xmlns="http://www.w3.org/2000/svg" xmlns:xlink="http://www.w3.org/1999/xlink" style="isolation:isolate" viewBox="0 0 50 50" width="50" height="50"><defs><clipPath id="_clipPath_drxkaQIKUKcGwwjQTiywpRHk7GtXH95Q"><rect width="50" height="50"/></clipPath></defs><g clip-path="url(#_clipPath_drxkaQIKUKcGwwjQTiywpRHk7GtXH95Q)"><g style="isolation:isolate"/><rect x="0" y="0" width="50" height="50" transform="matrix(1,0,0,1,0,0)" fill="rgb(113,113,113)"/><path d=" M 6.451 36.704 L 43.009 36.704 L 43.009 17.131 C 43.009 9.815 35.369 3.874 25.958 3.874 L 24.73 3.874 C 14.642 3.874 6.451 10.242 6.451 18.086 L 6.451 36.704 Z " fill-rule="evenodd" fill="rgb(19,19,19)"/><g><path d=" M 47.167 50 L 30.5 50 L 30.5 33.333 L 42.951 33.333 C 45.278 33.333 47.167 35.222 47.167 37.549 L 47.167 50 Z " fill-rule="evenodd" fill="rgb(79,56,42)"/><path d=" M 2.833 50 L 19.5 50 L 19.5 33.333 L 7.049 33.333 C 4.722 33.333 2.833 35.222 2.833 37.549 L 2.833 50 Z " fill-rule="evenodd" fill="rgb(79,56,42)"/><rect x="7.049" y="33.333" width="35.903" height="16.667" transform="matrix(1,0,0,1,0,0)" fill="rgb(79,56,42)"/></g><rect x="6.451" y="32.204" width="6.549" height="8.898" transform="matrix(1,0,0,1,0,0)" fill="rgb(19,19,19)"/><rect x="23.509" y="35.653" width="3.017" height="14.347" transform="matrix(1,0,0,1,0,0)" fill="rgb(32,26,23)"/><rect x="36.451" y="31.204" width="6.549" height="8.898" transform="matrix(1,0,0,1,0,0)" fill="rgb(19,19,19)"/><circle vector-effect="non-scaling-stroke" cx="25.01749389994636" cy="22.77906939040207" r="16" fill="rgb(234,186,145)"/><path d=" M 40.974 22.89 C 41.005 22.524 41.017 22.153 41.017 21.779 C 41.017 12.948 33.848 5.779 25.017 5.779 C 16.187 5.779 9.017 12.948 9.017 21.779 C 9.017 22.153 9.03 22.524 9.061 22.89 C 9.627 14.575 16.561 8 25.017 8 C 33.474 8 40.408 14.575 40.974 22.89 Z " fill-rule="evenodd" fill="rgb(19,19,19)"/><path d=" M 40.974 23.89 C 41.005 23.524 41.017 23.153 41.017 22.779 C 41.017 13.948 33.848 6.779 25.017 6.779 C 16.187 6.779 9.017 13.948 9.017 22.779 C 9.017 23.153 9.03 23.524 9.061 23.89 C 9.627 15.575 16.561 9 25.017 9 C 33.474 9 40.408 15.575 40.974 23.89 Z " fill-rule="evenodd" fill="rgb(19,19,19)"/><path d=" M 33.653 9.584 C 32.053 14.95 36.151 19.915 37.614 22.779" fill="none" vector-effect="non-scaling-stroke" stroke-width="2" stroke="rgb(19,19,19)" stroke-linejoin="miter" stroke-linecap="square" stroke-miterlimit="3"/><path d=" M 36.653 9.584 C 35.053 14.95 39.151 19.915 40.614 22.779" fill="none" vector-effect="non-scaling-stroke" stroke-width="2" stroke="rgb(19,19,19)" stroke-linejoin="miter" stroke-linecap="square" stroke-miterlimit="3"/><path d=" M 30.653 9.584 C 29.053 14.95 33.151 19.915 34.614 22.779" fill="none" vector-effect="non-scaling-stroke" stroke-width="2" stroke="rgb(19,19,19)" stroke-linejoin="miter" stroke-linecap="square" stroke-miterlimit="3"/></g></svg>