<?xml version="1.0" standalone="no"?><!-- Generator: Gravit.io --><svg xmlns="http://www.w3.org/2000/svg" xmlns:xlink="http://www.w3.org/1999/xlink" style="isolation:isolate" viewBox="0 0 50 50" width="50" height="50"><defs><clipPath id="_clipPath_L0XnqDH6WINuNPBQnhmzXpx53qIAu1Lg"><rect width="50" height="50"/></clipPath></defs><g clip-path="url(#_clipPath_L0XnqDH6WINuNPBQnhmzXpx53qIAu1Lg)"><g style="isolation:isolate"/><rect x="0" y="0" width="50" height="50" transform="matrix(1,0,0,1,0,0)" fill="rgb(113,113,113)"/><g><path d=" M 47.167 50 L 30.5 50 L 30.5 33.333 L 42.951 33.333 C 45.278 33.333 47.167 35.222 47.167 37.549 L 47.167 50 Z " fill-rule="evenodd" fill="rgb(19,19,19)"/><path d=" M 2.833 50 L 19.5 50 L 19.5 33.333 L 7.049 33.333 C 4.722 33.333 2.833 35.222 2.833 37.549 L 2.833 50 Z " fill-rule="evenodd" fill="rgb(19,19,19)"/><rect x="7.049" y="33.333" width="35.903" height="16.667" transform="matrix(1,0,0,1,0,0)" fill="rgb(19,19,19)"/></g><path d=" M 2.833 41.204 L 2.833 37.911 C 2.833 34.761 7.182 32.204 12.54 32.204 L 12.54 41.204 L 2.833 41.204 Z " fill-rule="evenodd" fill="rgb(0,0,0)"/><polygon points="9.5,9.796,12.964,15.796,6.036,15.796" fill="rgb(185,185,185)"/><rect x="6.629" y="15.621" width="6" height="34.379" transform="matrix(1,0,0,1,0,0)" fill="rgb(185,185,185)"/><line x1="9.629" y1="18" x2="9.629" y2="50" vector-effect="non-scaling-stroke" stroke-width="0.2" stroke="rgb(116,116,116)" stroke-linejoin="miter" stroke-linecap="square" stroke-miterlimit="3"/><polygon points="25,50,13.093,33.333,36.907,33.333" fill="rgb(0,0,0)"/><path d=" M 47.167 41.204 L 47.167 37.911 C 47.167 34.761 42.818 32.204 37.46 32.204 L 37.46 41.204 L 47.167 41.204 Z " fill-rule="evenodd" fill="rgb(0,0,0)"/><circle vector-effect="non-scaling-stroke" cx="24.999999898274737" cy="22.370693765539997" r="15.50000004967053" fill="rgb(234,186,145)"/><path d=" M 40.364 24.371 C 40.456 23.717 40.5 23.049 40.5 22.371 C 40.5 13.816 33.555 6.871 25 6.871 C 16.445 6.871 9.5 13.816 9.5 22.371 C 9.5 23.049 9.544 23.717 9.636 24.371 C 10.612 16.758 17.124 10.871 25 10.871 C 32.876 10.871 39.388 16.758 40.364 24.371 Z " fill-rule="evenodd" fill="rgb(255,255,0)"/></g></svg>