<?xml version="1.0" standalone="no"?><!-- Generator: Gravit.io --><svg xmlns="http://www.w3.org/2000/svg" xmlns:xlink="http://www.w3.org/1999/xlink" style="isolation:isolate" viewBox="0 0 50 50" width="50" height="50"><defs><clipPath id="_clipPath_HUn8U64mIPE1wlBvDA4eguo1x7KrxhqV"><rect width="50" height="50"/></clipPath></defs><g clip-path="url(#_clipPath_HUn8U64mIPE1wlBvDA4eguo1x7KrxhqV)"><g style="isolation:isolate"/><rect x="0" y="0" width="50" height="50" transform="matrix(1,0,0,1,0,0)" fill="rgb(113,113,113)"/><circle vector-effect="non-scaling-stroke" cx="24.999999898274748" cy="23.370693765539993" r="18.83333333333333" fill="rgb(213,185,0)"/><g><path d=" M 47.167 50 L 30.5 50 L 30.5 33.333 L 42.951 33.333 C 45.278 33.333 47.167 35.222 47.167 37.549 L 47.167 50 Z " fill-rule="evenodd" fill="rgb(46,46,46)"/><path d=" M 2.833 50 L 19.5 50 L 19.5 33.333 L 7.049 33.333 C 4.722 33.333 2.833 35.222 2.833 37.549 L 2.833 50 Z " fill-rule="evenodd" fill="rgb(46,46,46)"/><rect x="7.049" y="33.333" width="35.903" height="16.667" transform="matrix(1,0,0,1,0,0)" fill="rgb(46,46,46)"/></g><polygon points="25,26,36.25,50,13.75,50" fill="rgb(0,0,0)"/><rect x="6.167" y="25" width="8.833" height="25" transform="matrix(1,0,0,1,0,0)" fill="rgb(213,185,0)"/><circle vector-effect="non-scaling-stroke" cx="24.999999999999996" cy="22.370693765539997" r="14.812500050266575" fill="rgb(234,186,145)" stroke-width="0.2" stroke="rgb(0,0,0)" stroke-linejoin="miter" stroke-linecap="square" stroke-miterlimit="3"/><g><rect x="10.503" y="10.878" width="28.993" height="2.68" transform="matrix(1,0,0,1,0,0)" fill="rgb(162,162,162)"/><polygon points="10.498,9.539,12.819,13.558,8.177,13.558" fill="rgb(235,235,235)"/><polygon points="39.502,7.558,41.823,13.558,37.181,13.558" fill="rgb(235,235,235)"/><polygon points="25,7.558,27.321,13.558,22.679,13.558" fill="rgb(235,235,235)"/><polygon points="10.583,7.558,12.904,13.558,8.263,13.558" fill="rgb(235,235,235)"/><polygon points="25,9.539,27.321,13.558,22.679,13.558" fill="rgb(235,235,235)"/></g></g></svg>