<?xml version="1.0" standalone="no"?><!-- Generator: Gravit.io --><svg xmlns="http://www.w3.org/2000/svg" xmlns:xlink="http://www.w3.org/1999/xlink" style="isolation:isolate" viewBox="0 0 50 50" width="50" height="50"><defs><clipPath id="_clipPath_EGH0BG2TmT9bObVW3BYoXin2lAUjE2aQ"><rect width="50" height="50"/></clipPath></defs><g clip-path="url(#_clipPath_EGH0BG2TmT9bObVW3BYoXin2lAUjE2aQ)"><g style="isolation:isolate"/><rect x="0" y="0" width="50" height="50" transform="matrix(1,0,0,1,0,0)" fill="rgb(113,113,113)"/><circle vector-effect="non-scaling-stroke" cx="25" cy="24.396821104924427" r="16.24953714697068" fill="rgb(255,255,255)"/><g><path d=" M 47.167 50 L 30.5 50 L 30.5 33.333 L 42.951 33.333 C 45.278 33.333 47.167 35.222 47.167 37.549 L 47.167 50 Z " fill-rule="evenodd" fill="rgb(53,144,219)"/><path d=" M 2.833 50 L 19.5 50 L 19.5 33.333 L 7.049 33.333 C 4.722 33.333 2.833 35.222 2.833 37.549 L 2.833 50 Z " fill-rule="evenodd" fill="rgb(53,144,219)"/><rect x="7.049" y="33.333" width="35.903" height="16.667" transform="matrix(1,0,0,1,0,0)" fill="rgb(53,144,219)"/></g><polygon points="25,50,21.825,36.167,28.175,36.167" fill="rgb(234,186,145)"/><rect x="9.653" y="26.202" width="4.514" height="23.798" transform="matrix(1,0,0,1,0,0)" fill="rgb(255,255,255)"/><rect x="34.929" y="26.202" width="4.514" height="23.798" transform="matrix(1,0,0,1,0,0)" fill="rgb(255,255,255)"/><circle vector-effect="non-scaling-stroke" cx="24.99916422726711" cy="22.591316937625294" r="15.346785040901022" fill="rgb(234,186,145)"/><path d=" M 40.322 23.494 C 40.338 23.195 40.347 22.894 40.347 22.591 C 40.347 14.121 33.47 7.245 25 7.245 C 16.53 7.245 9.653 14.121 9.653 22.591 C 9.653 22.894 9.662 23.195 9.678 23.494 C 10.147 15.444 16.833 9.05 25 9.05 C 33.167 9.05 39.853 15.444 40.322 23.494 Z " fill-rule="evenodd" fill="rgb(255,255,255)"/><path d=" M 40.322 24.397 C 40.338 24.098 40.347 23.797 40.347 23.494 C 40.347 15.024 33.47 8.147 25 8.147 C 16.53 8.147 9.653 15.024 9.653 23.494 C 9.653 23.797 9.662 24.098 9.678 24.397 C 10.147 16.346 16.833 9.953 25 9.953 C 33.167 9.953 39.853 16.346 40.322 24.397 Z " fill-rule="evenodd" fill="rgb(255,255,255)"/><path d=" M 40.322 25.3 C 40.338 25.001 40.347 24.7 40.347 24.397 C 40.347 15.927 33.47 9.05 25 9.05 C 16.53 9.05 9.653 15.927 9.653 24.397 C 9.653 24.7 9.662 25.001 9.678 25.3 C 10.147 17.249 16.833 10.856 25 10.856 C 33.167 10.856 39.853 17.249 40.322 25.3 Z " fill-rule="evenodd" fill="rgb(255,255,255)"/><path d=" M 40.322 26.202 C 40.338 25.903 40.347 25.603 40.347 25.3 C 40.347 16.829 33.47 9.953 25 9.953 C 16.53 9.953 9.653 16.829 9.653 25.3 C 9.653 25.603 9.662 25.903 9.678 26.202 C 10.147 18.152 16.833 11.758 25 11.758 C 33.167 11.758 39.853 18.152 40.322 26.202 Z " fill-rule="evenodd" fill="rgb(255,255,255)"/><path d=" M 40.322 27.105 C 40.338 26.806 40.347 26.505 40.347 26.202 C 40.347 17.732 33.47 10.856 25 10.856 C 16.53 10.856 9.653 17.732 9.653 26.202 C 9.653 26.505 9.662 26.806 9.678 27.105 C 10.147 19.055 16.833 12.661 25 12.661 C 33.167 12.661 39.853 19.055 40.322 27.105 Z " fill-rule="evenodd" fill="rgb(255,255,255)"/><path d=" M 11.91 33.938 C 11.295 34.484 10.91 35.281 10.91 36.167 C 10.91 37.053 11.295 37.85 11.91 38.396 C 12.525 37.85 12.91 37.053 12.91 36.167 C 12.91 35.281 12.525 34.484 11.91 33.938 Z " fill-rule="evenodd" fill="rgb(53,144,219)"/><path d=" M 37.5 33.938 C 36.885 34.484 36.5 35.281 36.5 36.167 C 36.5 37.053 36.885 37.85 37.5 38.396 C 38.115 37.85 38.5 37.053 38.5 36.167 C 38.5 35.281 38.115 34.484 37.5 33.938 Z " fill-rule="evenodd" fill="rgb(53,144,219)"/><path d=" M 37.5 39.438 C 36.885 39.984 36.5 40.781 36.5 41.667 C 36.5 42.553 36.885 43.35 37.5 43.896 C 38.115 43.35 38.5 42.553 38.5 41.667 C 38.5 40.781 38.115 39.984 37.5 39.438 Z " fill-rule="evenodd" fill="rgb(53,144,219)"/><path d=" M 37.5 44.542 C 36.885 45.088 36.5 45.885 36.5 46.771 C 36.5 47.657 36.885 48.454 37.5 49 C 38.115 48.454 38.5 47.657 38.5 46.771 C 38.5 45.885 38.115 45.088 37.5 44.542 Z " fill-rule="evenodd" fill="rgb(53,144,219)"/><path d=" M 11.91 39.438 C 11.295 39.984 10.91 40.781 10.91 41.667 C 10.91 42.553 11.295 43.35 11.91 43.896 C 12.525 43.35 12.91 42.553 12.91 41.667 C 12.91 40.781 12.525 39.984 11.91 39.438 Z " fill-rule="evenodd" fill="rgb(53,144,219)"/><path d=" M 11.91 44.542 C 11.295 45.088 10.91 45.885 10.91 46.771 C 10.91 47.657 11.295 48.454 11.91 49 C 12.525 48.454 12.91 47.657 12.91 46.771 C 12.91 45.885 12.525 45.088 11.91 44.542 Z " fill-rule="evenodd" fill="rgb(53,144,219)"/></g></svg>