<?xml version="1.0" standalone="no"?><!-- Generator: Gravit.io --><svg xmlns="http://www.w3.org/2000/svg" xmlns:xlink="http://www.w3.org/1999/xlink" style="isolation:isolate" viewBox="0 0 50 50" width="50" height="50"><defs><clipPath id="_clipPath_BItz4Uhq4iEurtUBvhdiyhiEMB5ALUFC"><rect width="50" height="50"/></clipPath></defs><g clip-path="url(#_clipPath_BItz4Uhq4iEurtUBvhdiyhiEMB5ALUFC)"><rect x="0" y="0" width="50" height="50" transform="matrix(1,0,0,1,0,0)" fill="rgb(162,162,162)"/><g><path d=" M 43.583 50 L 29.611 50 L 29.611 36.028 L 40.049 36.028 C 42 36.028 43.583 37.611 43.583 39.561 L 43.583 50 Z " fill-rule="evenodd" fill="rgb(130,104,71)"/><path d=" M 6.417 50 L 20.389 50 L 20.389 36.028 L 9.951 36.028 C 8 36.028 6.417 37.611 6.417 39.561 L 6.417 50 Z " fill-rule="evenodd" fill="rgb(130,104,71)"/><rect x="9.951" y="36.028" width="30.099" height="13.972" transform="matrix(1,0,0,1,0,0)" fill="rgb(130,104,71)"/></g><polygon points="25.001,43.691,22.351,39.102,27.65,39.102" fill="rgb(174,4,4)" vector-effect="non-scaling-stroke" stroke-width="0.2" stroke="rgb(0,0,0)" stroke-linejoin="miter" stroke-linecap="square" stroke-miterlimit="3"/><line x1="25" y1="43.691" x2="25" y2="50" vector-effect="non-scaling-stroke" stroke-width="0.2" stroke="rgb(0,0,0)" stroke-linejoin="miter" stroke-linecap="square" stroke-miterlimit="3"/><polygon points="37.787,36.11,34.235,42.289,30.66,36.069" fill="rgb(46,46,46)"/><rect x="23.155" y="35.175" width="6.531" height="15.491" transform="matrix(0.526,0.85,-0.85,0.526,49.021,-2.129)" fill="rgb(46,46,46)"/><circle vector-effect="non-scaling-stroke" cx="25.00000000199877" cy="25.687969769268335" r="14.2518797904289" fill="rgb(234,186,145)" stroke-width="0.2" stroke="rgb(0,0,0)" stroke-linejoin="miter" stroke-linecap="square" stroke-miterlimit="3"/><path d=" M 39.102 27.784 C 39.2 27.099 39.253 26.4 39.253 25.688 C 39.253 17.822 32.867 11.436 25.001 11.436 C 17.135 11.436 10.749 17.822 10.749 25.688 C 10.749 26.4 10.801 27.099 10.9 27.784 C 11.917 20.911 17.847 15.628 25.001 15.628 C 32.155 15.628 38.085 20.911 39.102 27.784 Z " fill-rule="evenodd" fill="rgb(253,253,94)" vector-effect="non-scaling-stroke" stroke-width="0.2" stroke="rgb(0,0,0)" stroke-linejoin="miter" stroke-linecap="square" stroke-miterlimit="3"/><g style="isolation:isolate"/><polygon points="14.904,49.944,18.196,44.149,21.569,50" fill="rgb(46,46,46)"/><g><rect x="13.718" y="15.838" width="15.217" height="1.925" transform="matrix(0.934,-0.357,0.357,0.934,-4.587,8.717)" fill="rgb(255,153,0)"/><polygon points="11.264,16.524,15.546,20.04,10.416,22" fill="rgb(255,153,0)"/><polygon points="19.638,13.217,23.919,16.734,18.79,18.694" fill="rgb(255,153,0)"/><polygon points="28.44,9.96,32.722,13.477,27.592,15.437" fill="rgb(255,153,0)"/></g></g></svg>