<?xml version="1.0" standalone="no"?><!-- Generator: Gravit.io --><svg xmlns="http://www.w3.org/2000/svg" xmlns:xlink="http://www.w3.org/1999/xlink" style="isolation:isolate" viewBox="0 0 50 50" width="50" height="50"><defs><clipPath id="_clipPath_pl9v7Z7XN9aqZfnaYGsFw3CSaqVHKh1C"><rect width="50" height="50"/></clipPath></defs><g clip-path="url(#_clipPath_pl9v7Z7XN9aqZfnaYGsFw3CSaqVHKh1C)"><g style="isolation:isolate"/><rect x="0" y="0" width="50" height="50" transform="matrix(1,0,0,1,0,0)" fill="rgb(113,113,113)"/><circle vector-effect="non-scaling-stroke" cx="24.999999898274748" cy="23.370693765539993" r="18.83333333333333" fill="rgb(0,0,0)" stroke-width="0.2" stroke="rgb(0,0,0)" stroke-linejoin="miter" stroke-linecap="square" stroke-miterlimit="3"/><g><path d=" M 47.167 50 L 30.5 50 L 30.5 33.333 L 42.951 33.333 C 45.278 33.333 47.167 35.222 47.167 37.549 L 47.167 50 Z " fill-rule="evenodd" fill="rgb(19,19,19)"/><path d=" M 2.833 50 L 19.5 50 L 19.5 33.333 L 7.049 33.333 C 4.722 33.333 2.833 35.222 2.833 37.549 L 2.833 50 Z " fill-rule="evenodd" fill="rgb(19,19,19)"/><rect x="7.049" y="33.333" width="35.903" height="16.667" transform="matrix(1,0,0,1,0,0)" fill="rgb(19,19,19)"/></g><circle vector-effect="non-scaling-stroke" cx="24.99999990065893" cy="21" r="17" fill="rgb(234,186,145)" stroke-width="0.2" stroke="rgb(0,0,0)" stroke-linejoin="miter" stroke-linecap="square" stroke-miterlimit="3"/><path d=" M 41.935 22.371 C 41.981 21.921 42 21.462 42 21 C 42 11.617 34.383 4 25 4 C 15.617 4 8 11.617 8 21 C 8 21.462 8.019 21.921 8.065 22.371 C 8.755 13.626 16.08 6.741 25 6.741 C 33.92 6.741 41.245 13.626 41.935 22.371 Z " fill-rule="evenodd" fill="rgb(0,0,0)" vector-effect="non-scaling-stroke" stroke-width="0.2" stroke="rgb(0,0,0)" stroke-linejoin="miter" stroke-linecap="square" stroke-miterlimit="3"/><path d=" M 41.935 23.371 C 41.981 22.921 42 22.462 42 22 C 42 12.617 34.383 5 25 5 C 15.617 5 8 12.617 8 22 C 8 22.462 8.019 22.921 8.065 23.371 C 8.755 14.626 16.08 7.741 25 7.741 C 33.92 7.741 41.245 14.626 41.935 23.371 Z " fill-rule="evenodd" fill="rgb(0,0,0)" vector-effect="non-scaling-stroke" stroke-width="0.2" stroke="rgb(0,0,0)" stroke-linejoin="miter" stroke-linecap="square" stroke-miterlimit="3"/><path d=" M 21.84 37 L 28.16 37 L 28.16 33.269 C 28.16 31.874 26.839 30.741 25.212 30.741 L 25 30.741 C 23.256 30.741 21.84 31.955 21.84 33.451 L 21.84 37 Z " fill-rule="evenodd" fill="rgb(234,186,145)"/><path d=" M 8.08 19.483 C 8.023 19.98 8 20.487 8 21 C 8 30.383 15.617 38 25 38 C 34.383 38 42 30.383 42 21 C 42 20.487 41.977 19.98 41.92 19.483 C 41.162 28.158 33.87 34.966 25 34.966 C 16.13 34.966 8.838 28.158 8.08 19.483 Z " fill-rule="evenodd" fill="rgb(0,0,0)" vector-effect="non-scaling-stroke" stroke-width="0.2" stroke="rgb(0,0,0)" stroke-linejoin="miter" stroke-linecap="square" stroke-miterlimit="3"/><line x1="25.212" y1="37" x2="25" y2="50" vector-effect="non-scaling-stroke" stroke-width="0.5" stroke="rgb(0,0,0)" stroke-linejoin="miter" stroke-linecap="square" stroke-miterlimit="3"/><polygon points="25,24.741,31.232,30.741,18.768,30.741" fill="rgb(0,0,0)"/><polygon points="25,26.741,31.232,32.741,18.768,32.741" fill="rgb(234,186,145)"/><polygon points="25,31.427,27.822,36.315,22.178,36.315" fill="rgb(0,0,0)"/><path d=" M 41.935 22.371 C 41.981 21.921 42 21.462 42 21 C 42 11.617 34.383 4 25 4 C 15.617 4 8 11.617 8 21 C 8 21.462 8.019 21.921 8.065 22.371 C 8.755 13.626 16.08 6.741 25 6.741 C 33.92 6.741 41.245 13.626 41.935 22.371 Z " fill-rule="evenodd" fill="rgb(0,0,0)" vector-effect="non-scaling-stroke" stroke-width="0.2" stroke="rgb(0,0,0)" stroke-linejoin="miter" stroke-linecap="square" stroke-miterlimit="3"/><path d=" M 2.293 41.204 L 2.293 37.911 C 2.293 34.761 6.642 32.204 12 32.204 L 12 41.204 L 2.293 41.204 Z " fill-rule="evenodd" fill="rgb(0,0,0)"/><path d=" M 47.167 41.204 L 47.167 37.911 C 47.167 34.761 42.818 32.204 37.46 32.204 L 37.46 41.204 L 47.167 41.204 Z " fill-rule="evenodd" fill="rgb(0,0,0)"/></g></svg>