<?xml version="1.0" standalone="no"?><!-- Generator: Gravit.io --><svg xmlns="http://www.w3.org/2000/svg" xmlns:xlink="http://www.w3.org/1999/xlink" style="isolation:isolate" viewBox="0 0 50 50" width="50" height="50"><defs><clipPath id="_clipPath_tpY1vs8FrKH09piRcSh8fLdnNx0WfXdI"><rect width="50" height="50"/></clipPath></defs><g clip-path="url(#_clipPath_tpY1vs8FrKH09piRcSh8fLdnNx0WfXdI)"><g style="isolation:isolate"/><rect x="0" y="0" width="50" height="50" transform="matrix(1,0,0,1,0,0)" fill="rgb(113,113,113)"/><circle vector-effect="non-scaling-stroke" cx="24.999999898274748" cy="23.370693765539993" r="18.83333333333333" fill="rgb(147,28,2)"/><g><path d=" M 47.167 50 L 30.5 50 L 30.5 33.333 L 42.951 33.333 C 45.278 33.333 47.167 35.222 47.167 37.549 L 47.167 50 Z " fill-rule="evenodd" fill="rgb(58,97,159)"/><path d=" M 2.833 50 L 19.5 50 L 19.5 33.333 L 7.049 33.333 C 4.722 33.333 2.833 35.222 2.833 37.549 L 2.833 50 Z " fill-rule="evenodd" fill="rgb(58,97,159)"/><rect x="7.049" y="33.333" width="35.903" height="16.667" transform="matrix(1,0,0,1,0,0)" fill="rgb(58,97,159)"/></g><polygon points="24.5,50,15,33.333,34,33.333" fill="rgb(234,186,145)"/><rect x="6.167" y="22.371" width="8.833" height="27.629" transform="matrix(1,0,0,1,0,0)" fill="rgb(147,28,2)"/><rect x="35" y="22.371" width="8.833" height="27.629" transform="matrix(1,0,0,1,0,0)" fill="rgb(147,28,2)"/><circle vector-effect="non-scaling-stroke" cx="24.999999999999996" cy="22.370693765539997" r="14.812500050266575" fill="rgb(234,186,145)" stroke-width="0.2" stroke="rgb(0,0,0)" stroke-linejoin="miter" stroke-linecap="square" stroke-miterlimit="3"/><path d=" M 41.935 22.371 C 41.981 21.921 42 21.462 42 21 C 42 11.617 34.383 4 25 4 C 15.617 4 8 11.617 8 21 C 8 21.462 8.019 21.921 8.065 22.371 C 8.755 13.626 16.08 6.741 25 6.741 C 33.92 6.741 41.245 13.626 41.935 22.371 Z " fill-rule="evenodd" fill="rgb(147,28,2)"/><path d=" M 41.935 24.371 C 41.981 23.921 42 23.462 42 23 C 42 13.617 34.383 6 25 6 C 15.617 6 8 13.617 8 23 C 8 23.462 8.019 23.921 8.065 24.371 C 8.755 15.626 16.08 8.741 25 8.741 C 33.92 8.741 41.245 15.626 41.935 24.371 Z " fill-rule="evenodd" fill="rgb(147,28,2)"/></g></svg>