<?xml version="1.0" standalone="no"?><!-- Generator: Gravit.io --><svg xmlns="http://www.w3.org/2000/svg" xmlns:xlink="http://www.w3.org/1999/xlink" style="isolation:isolate" viewBox="0 0 50 50" width="50" height="50"><defs><clipPath id="_clipPath_SOaBay3QxPwHGnzykTsRKvRX5pB6Z39h"><rect width="50" height="50"/></clipPath></defs><g clip-path="url(#_clipPath_SOaBay3QxPwHGnzykTsRKvRX5pB6Z39h)"><rect x="0" y="0" width="50" height="50" transform="matrix(1,0,0,1,0,0)" fill="rgb(162,162,162)"/><g><path d=" M 47.167 50 L 30.5 50 L 30.5 33.333 L 42.951 33.333 C 45.278 33.333 47.167 35.222 47.167 37.549 L 47.167 50 Z " fill-rule="evenodd" fill="rgb(46,46,46)"/><path d=" M 2.833 50 L 19.5 50 L 19.5 33.333 L 7.049 33.333 C 4.722 33.333 2.833 35.222 2.833 37.549 L 2.833 50 Z " fill-rule="evenodd" fill="rgb(46,46,46)"/><rect x="7.049" y="33.333" width="35.903" height="16.667" transform="matrix(1,0,0,1,0,0)" fill="rgb(46,46,46)"/></g><polygon points="25.001,42.474,21.84,37,28.161,37" fill="rgb(0,0,0)" vector-effect="non-scaling-stroke" stroke-width="0.2" stroke="rgb(0,0,0)" stroke-linejoin="miter" stroke-linecap="square" stroke-miterlimit="3"/><circle vector-effect="non-scaling-stroke" cx="24.99999990065893" cy="21" r="17" fill="rgb(234,186,145)" stroke-width="0.2" stroke="rgb(0,0,0)" stroke-linejoin="miter" stroke-linecap="square" stroke-miterlimit="3"/><line x1="25" y1="42.474" x2="25" y2="50" vector-effect="non-scaling-stroke" stroke-width="0.2" stroke="rgb(0,0,0)" stroke-linejoin="miter" stroke-linecap="square" stroke-miterlimit="3"/><g style="isolation:isolate"/><path d=" M 41.871 23 C 41.96 22.346 42 21.678 42 21 C 42 11.617 34.383 4 25 4 C 15.617 4 8 11.617 8 21 C 8 21.678 8.04 22.346 8.129 23 C 9.11 14.557 16.295 8 25 8 C 33.705 8 40.89 14.557 41.871 23 Z " fill-rule="evenodd" fill="rgb(0,0,0)" vector-effect="non-scaling-stroke" stroke-width="0.2" stroke="rgb(0,0,0)" stroke-linejoin="miter" stroke-linecap="square" stroke-miterlimit="3"/><path d=" M 36.59 8.571 C 39.919 11.674 42 16.096 42 21 C 42 21.678 41.96 22.346 41.871 23 C 41.605 20.707 40.881 18.554 39.791 16.635 C 39.353 13.593 38.222 10.827 36.59 8.571 Z  M 16.268 6.412 C 11.317 9.386 8 14.809 8 21 C 8 21.678 8.04 22.346 8.129 23 C 8.499 19.812 9.754 16.893 11.65 14.501 C 12.481 11.291 14.11 8.49 16.268 6.412 Z " fill-rule="evenodd" fill="rgb(70,70,70)" vector-effect="non-scaling-stroke" stroke-width="0.2" stroke="rgb(0,0,0)" stroke-linejoin="miter" stroke-linecap="square" stroke-miterlimit="3"/><path d=" M 29.087 34.836 C 28.199 36.155 26.687 37.015 24.98 37 C 23.273 36.984 21.777 36.096 20.913 34.761 C 22 35.722 23.424 36.309 24.986 36.324 C 26.549 36.338 27.983 35.777 29.087 34.836 Z " fill-rule="evenodd" fill="rgb(70,70,70)" vector-effect="non-scaling-stroke" stroke-width="0.2" stroke="rgb(0,0,0)" stroke-linejoin="miter" stroke-linecap="square" stroke-miterlimit="3"/><polygon points="25,30,28.897,33.333,21.103,33.333" fill="rgb(70,70,70)" vector-effect="non-scaling-stroke" stroke-width="0.2" stroke="rgb(0,0,0)" stroke-linejoin="miter" stroke-linecap="square" stroke-miterlimit="3"/></g></svg>