<?xml version="1.0" standalone="no"?><!-- Generator: Gravit.io --><svg xmlns="http://www.w3.org/2000/svg" xmlns:xlink="http://www.w3.org/1999/xlink" style="isolation:isolate" viewBox="0 0 50 50" width="50" height="50"><defs><clipPath id="_clipPath_DDBWo8jxRVnCj75eA72dRJiwl9tvKfoX"><rect width="50" height="50"/></clipPath></defs><g clip-path="url(#_clipPath_DDBWo8jxRVnCj75eA72dRJiwl9tvKfoX)"><g style="isolation:isolate"/><rect x="0" y="0" width="50" height="50" transform="matrix(1,0,0,1,0,0)" fill="rgb(113,113,113)"/><circle vector-effect="non-scaling-stroke" cx="24.999999898274748" cy="23.370693765539993" r="18.83333333333333" fill="rgb(149,12,12)"/><g><path d=" M 47.167 50 L 30.5 50 L 30.5 33.333 L 42.951 33.333 C 45.278 33.333 47.167 35.222 47.167 37.549 L 47.167 50 Z " fill-rule="evenodd" fill="rgb(19,19,19)"/><path d=" M 2.833 50 L 19.5 50 L 19.5 33.333 L 7.049 33.333 C 4.722 33.333 2.833 35.222 2.833 37.549 L 2.833 50 Z " fill-rule="evenodd" fill="rgb(19,19,19)"/><rect x="7.049" y="33.333" width="35.903" height="16.667" transform="matrix(1,0,0,1,0,0)" fill="rgb(19,19,19)"/></g><polygon points="24.73,50,8.788,32.204,40.672,32.204" fill="rgb(62,30,9)"/><path d=" M 2.293 41.204 L 2.293 37.911 C 2.293 34.761 6.642 32.204 12 32.204 L 12 41.204 L 2.293 41.204 Z " fill-rule="evenodd" fill="rgb(0,0,0)"/><path d=" M 47.167 41.204 L 47.167 37.911 C 47.167 34.761 42.818 32.204 37.46 32.204 L 37.46 41.204 L 47.167 41.204 Z " fill-rule="evenodd" fill="rgb(0,0,0)"/><rect x="36" y="28" width="6" height="22" transform="matrix(1,0,0,1,0,0)" fill="rgb(149,12,12)"/><circle vector-effect="non-scaling-stroke" cx="24.99999990065893" cy="21" r="17" fill="rgb(234,186,145)"/><path d=" M 41.935 22.371 C 41.981 21.921 42 21.462 42 21 C 42 11.617 34.383 4 25 4 C 15.617 4 8 11.617 8 21 C 8 21.462 8.019 21.921 8.065 22.371 C 8.755 13.626 16.08 6.741 25 6.741 C 33.92 6.741 41.245 13.626 41.935 22.371 Z " fill-rule="evenodd" fill="rgb(149,12,12)"/><path d=" M 41.935 23.371 C 41.981 22.921 42 22.462 42 22 C 42 12.617 34.383 5 25 5 C 15.617 5 8 12.617 8 22 C 8 22.462 8.019 22.921 8.065 23.371 C 8.755 14.626 16.08 7.741 25 7.741 C 33.92 7.741 41.245 14.626 41.935 23.371 Z " fill-rule="evenodd" fill="rgb(149,12,12)"/><path d=" M 43.761 22.371 C 43.813 21.921 43.833 21.462 43.833 21 C 43.833 11.617 35.394 4 25 4 C 14.606 4 6.167 11.617 6.167 21 C 6.167 21.462 6.187 21.921 6.239 22.371 C 7.003 13.626 15.118 6.741 25 6.741 C 34.882 6.741 42.997 13.626 43.761 22.371 Z " fill-rule="evenodd" fill="rgb(149,12,12)"/><path d=" M 43.761 24.371 C 43.813 23.921 43.833 23.462 43.833 23 C 43.833 13.617 35.394 6 25 6 C 14.606 6 6.167 13.617 6.167 23 C 6.167 23.462 6.187 23.921 6.239 24.371 C 7.003 15.626 15.118 8.741 25 8.741 C 34.882 8.741 42.997 15.626 43.761 24.371 Z " fill-rule="evenodd" fill="rgb(149,12,12)"/><path d=" M 42.911 24.371 C 42.96 23.921 42.98 23.462 42.98 23 C 42.98 13.617 34.952 6 25.063 6 C 15.175 6 7.147 13.617 7.147 23 C 7.147 23.462 7.166 23.921 7.215 24.371 C 7.943 15.626 15.662 8.741 25.063 8.741 C 34.464 8.741 42.184 15.626 42.911 24.371 Z " fill-rule="evenodd" fill="rgb(149,12,12)"/><path d=" M 43.761 26.371 C 43.813 25.921 43.833 25.462 43.833 25 C 43.833 15.617 35.394 8 25 8 C 14.606 8 6.167 15.617 6.167 25 C 6.167 25.462 6.187 25.921 6.239 26.371 C 7.003 17.626 15.118 10.741 25 10.741 C 34.882 10.741 42.997 17.626 43.761 26.371 Z " fill-rule="evenodd" fill="rgb(149,12,12)"/><line x1="36" y1="36.704" x2="42" y2="44" vector-effect="non-scaling-stroke" stroke-width="0.2" stroke="rgb(0,0,0)" stroke-linejoin="miter" stroke-linecap="square" stroke-miterlimit="3"/><line x1="36" y1="42.704" x2="42" y2="50" vector-effect="non-scaling-stroke" stroke-width="0.2" stroke="rgb(0,0,0)" stroke-linejoin="miter" stroke-linecap="square" stroke-miterlimit="3"/><line x1="42" y1="36.704" x2="36" y2="44" vector-effect="non-scaling-stroke" stroke-width="0.2" stroke="rgb(0,0,0)" stroke-linejoin="miter" stroke-linecap="square" stroke-miterlimit="3"/><line x1="42" y1="42.704" x2="36" y2="50" vector-effect="non-scaling-stroke" stroke-width="0.2" stroke="rgb(0,0,0)" stroke-linejoin="miter" stroke-linecap="square" stroke-miterlimit="3"/></g></svg>