<?xml version="1.0" standalone="no"?><!-- Generator: Gravit.io --><svg xmlns="http://www.w3.org/2000/svg" xmlns:xlink="http://www.w3.org/1999/xlink" style="isolation:isolate" viewBox="0 0 50 50" width="50" height="50"><defs><clipPath id="_clipPath_phGPXOJN2nPHeSTgYltYpGB3SmRYG0id"><rect width="50" height="50"/></clipPath></defs><g clip-path="url(#_clipPath_phGPXOJN2nPHeSTgYltYpGB3SmRYG0id)"><rect x="0" y="0" width="50" height="50" transform="matrix(1,0,0,1,0,0)" fill="rgb(113,113,113)"/><circle vector-effect="non-scaling-stroke" cx="25.000925706058645" cy="23.000000049670547" r="18.00000004967054" fill="rgb(113,82,32)" stroke-width="0.2" stroke="rgb(0,0,0)" stroke-linejoin="miter" stroke-linecap="square" stroke-miterlimit="3"/><g><path d=" M 47.167 50 L 30.5 50 L 30.5 33.333 L 42.951 33.333 C 45.278 33.333 47.167 35.222 47.167 37.549 L 47.167 50 Z " fill-rule="evenodd" fill="rgb(19,19,19)"/><path d=" M 2.833 50 L 19.5 50 L 19.5 33.333 L 7.049 33.333 C 4.722 33.333 2.833 35.222 2.833 37.549 L 2.833 50 Z " fill-rule="evenodd" fill="rgb(19,19,19)"/><rect x="7.049" y="33.333" width="35.903" height="16.667" transform="matrix(1,0,0,1,0,0)" fill="rgb(19,19,19)"/></g><polygon points="25.001,42.474,21.84,37,28.161,37" fill="rgb(253,2,2)" vector-effect="non-scaling-stroke" stroke-width="0.2" stroke="rgb(0,0,0)" stroke-linejoin="miter" stroke-linecap="square" stroke-miterlimit="3"/><circle vector-effect="non-scaling-stroke" cx="24.99999990065893" cy="21" r="17" fill="rgb(235,235,235)" stroke-width="0.2" stroke="rgb(0,0,0)" stroke-linejoin="miter" stroke-linecap="square" stroke-miterlimit="3"/><line x1="17" y1="27.741" x2="29" y2="14" vector-effect="non-scaling-stroke" stroke-width="1" stroke="rgb(138,32,32)" stroke-linejoin="miter" stroke-linecap="square" stroke-miterlimit="3"/><path d=" M 42 17.639 C 41.459 17.706 40.906 17.733 40.347 17.733 C 32.117 17.733 25.245 11.871 23.694 4.094 C 24.235 4.027 24.788 4 25.347 4 C 33.577 4 40.45 9.861 42 17.639 Z " fill-rule="evenodd" fill="rgb(113,82,32)" vector-effect="non-scaling-stroke" stroke-width="0.2" stroke="rgb(0,0,0)" stroke-linejoin="miter" stroke-linecap="square" stroke-miterlimit="3"/><path d=" M 20.931 38.051 L 29.069 38.051 L 29.069 32.446 C 29.069 30.352 27.368 28.651 25.273 28.651 L 25 28.651 C 22.754 28.651 20.931 30.474 20.931 32.72 L 20.931 38.051 Z " fill-rule="evenodd" fill="rgb(0,0,0)"/><path d=" M 21.84 37 L 28.16 37 L 28.16 33.269 C 28.16 31.874 26.839 30.741 25.212 30.741 L 25 30.741 C 23.256 30.741 21.84 31.955 21.84 33.451 L 21.84 37 Z " fill-rule="evenodd" fill="rgb(235,235,235)"/><path d=" M 8.08 19.483 C 8.023 19.98 8 20.487 8 21 C 8 30.383 15.617 38 25 38 C 34.383 38 42 30.383 42 21 C 42 20.487 41.977 19.98 41.92 19.483 C 41.162 28.158 33.87 34.966 25 34.966 C 16.13 34.966 8.838 28.158 8.08 19.483 Z " fill-rule="evenodd" fill="rgb(0,0,0)" vector-effect="non-scaling-stroke" stroke-width="0.2" stroke="rgb(0,0,0)" stroke-linejoin="miter" stroke-linecap="square" stroke-miterlimit="3"/><path d=" M 8.08 18.483 C 8.023 18.98 8 19.487 8 20 C 8 29.383 15.617 37 25 37 C 34.383 37 42 29.383 42 20 C 42 19.487 41.977 18.98 41.92 18.483 C 41.162 27.158 33.87 33.966 25 33.966 C 16.13 33.966 8.838 27.158 8.08 18.483 Z " fill-rule="evenodd" fill="rgb(0,0,0)" vector-effect="non-scaling-stroke" stroke-width="0.2" stroke="rgb(0,0,0)" stroke-linejoin="miter" stroke-linecap="square" stroke-miterlimit="3"/><path d=" M 8.08 17.483 C 8.023 17.98 8 18.487 8 19 C 8 28.383 15.617 36 25 36 C 34.383 36 42 28.383 42 19 C 42 18.487 41.977 17.98 41.92 17.483 C 41.162 26.158 33.87 32.966 25 32.966 C 16.13 32.966 8.838 26.158 8.08 17.483 Z " fill-rule="evenodd" fill="rgb(0,0,0)" vector-effect="non-scaling-stroke" stroke-width="0.2" stroke="rgb(0,0,0)" stroke-linejoin="miter" stroke-linecap="square" stroke-miterlimit="3"/><line x1="25" y1="42.474" x2="25" y2="50" vector-effect="non-scaling-stroke" stroke-width="0.2" stroke="rgb(0,0,0)" stroke-linejoin="miter" stroke-linecap="square" stroke-miterlimit="3"/><g style="isolation:isolate"/><path d=" M 33.633 6.133 C 32.402 14.313 25.337 20.596 16.816 20.596 C 13.159 20.596 9.769 19.439 7 17.463 C 8.23 9.283 15.295 3 23.816 3 C 27.474 3 30.863 4.158 33.633 6.133 Z " fill-rule="evenodd" fill="rgb(113,82,32)" vector-effect="non-scaling-stroke" stroke-width="0.2" stroke="rgb(0,0,0)" stroke-linejoin="miter" stroke-linecap="square" stroke-miterlimit="3"/></g></svg>